<svg width="32" height="31" viewBox="0 0 32 31" fill="none" xmlns="http://www.w3.org/2000/svg">
<path d="M16.125 0C12.0151 0 8.06984 1.63404 5.16602 4.5398C2.25919 7.44672 0.625805 11.3891 0.625 15.5C0.625 19.6092 2.25977 23.5544 5.16602 26.4602C8.06984 29.366 12.0151 31 16.125 31C20.2349 31 24.1802 29.366 27.084 26.4602C29.9902 23.5544 31.625 19.6092 31.625 15.5C31.625 11.3908 29.9902 7.44557 27.084 4.5398C24.1802 1.63404 20.2349 0 16.125 0Z" fill="url(#paint0_linear_410_1912)"/>
<path d="M7.3368 15.3558C11.8184 13.449 14.8062 12.1918 16.3001 11.5845C20.5704 9.85009 21.4566 9.54887 22.0355 9.53866C22.1627 9.53667 22.4462 9.5674 22.6311 9.71344C22.7848 9.8366 22.828 10.0032 22.8496 10.1201C22.8689 10.2369 22.8953 10.5032 22.8737 10.7111C22.6431 13.0852 21.6416 18.8464 21.1324 21.5055C20.9186 22.6306 20.4935 23.0079 20.0828 23.0447C19.1894 23.1249 18.5121 22.4685 17.6475 21.9151C16.2953 21.0488 15.5315 20.5097 14.2178 19.6644C12.6999 18.6875 13.6846 18.1506 14.5492 17.2732C14.775 17.0435 18.709 13.5492 18.7835 13.2323C18.7931 13.1926 18.8027 13.0448 18.7114 12.9669C18.6226 12.8888 18.4905 12.9156 18.3944 12.9367C18.2575 12.9667 16.0984 14.3621 11.9097 17.1226C11.2973 17.534 10.7425 17.7346 10.2429 17.7241C9.69531 17.7126 8.63854 17.421 7.85317 17.1718C6.89247 16.8661 6.12632 16.7045 6.19357 16.1854C6.22719 15.9151 6.60907 15.6385 7.3368 15.3558Z" fill="white"/>
<defs>
<linearGradient id="paint0_linear_410_1912" x1="1550.63" y1="0" x2="1550.63" y2="3100" gradientUnits="userSpaceOnUse">
<stop stop-color="#2AABEE"/>
<stop offset="1" stop-color="#229ED9"/>
</linearGradient>
</defs>
</svg>
