<svg width="31" height="31" viewBox="0 0 31 31" fill="none" xmlns="http://www.w3.org/2000/svg">
<path d="M0.129202 15.3603C0.128449 18.0673 0.838933 20.7104 2.18991 23.0401L0 31L8.18261 28.8641C10.4458 30.0907 12.9816 30.7334 15.5584 30.7335H15.5652C24.0718 30.7335 30.9964 23.8424 31 15.3724C31.0016 11.2681 29.3975 7.40868 26.4831 4.50505C23.5691 1.60167 19.6937 0.00187315 15.5645 0C7.05692 0 0.132839 6.89069 0.129327 15.3603" fill="url(#paint0_linear_410_1909)"/>
<path d="M11.8012 9.07852C11.4923 8.41236 11.1673 8.39892 10.8736 8.38724C10.633 8.37719 10.3581 8.37794 10.0834 8.37794C9.80845 8.37794 9.36172 8.47831 8.98411 8.87841C8.60612 9.27889 7.54102 10.2467 7.54102 12.215C7.54102 14.1835 9.01842 16.0857 9.22437 16.3529C9.43059 16.6196 12.0765 20.7882 16.2671 22.3918C19.7498 23.7245 20.4585 23.4595 21.2143 23.3926C21.9703 23.326 23.6537 22.4251 23.9971 21.4909C24.3408 20.5568 24.3408 19.7561 24.2378 19.5887C24.1347 19.422 23.8598 19.3219 23.4475 19.1219C23.035 18.9218 21.0081 17.9539 20.6303 17.8204C20.2523 17.687 19.9775 17.6204 19.7025 18.021C19.4276 18.421 18.638 19.3219 18.3974 19.5887C18.157 19.8562 17.9164 19.8895 17.5042 19.6894C17.0916 19.4886 15.7639 19.0667 14.1886 17.7038C12.963 16.6433 12.1356 15.3338 11.895 14.9331C11.6545 14.5332 11.8693 14.3164 12.076 14.117C12.2613 13.9377 12.4884 13.6498 12.6948 13.4163C12.9003 13.1826 12.9689 13.0159 13.1064 12.7491C13.244 12.4821 13.1752 12.2484 13.0722 12.0483C12.9689 11.8482 12.1678 9.86955 11.8012 9.07852Z" fill="white"/>
<defs>
<linearGradient id="paint0_linear_410_1909" x1="1550" y1="3100" x2="1550" y2="0" gradientUnits="userSpaceOnUse">
<stop stop-color="#1FAF38"/>
<stop offset="1" stop-color="#60D669"/>
</linearGradient>
</defs>
</svg>
