<svg width="102" height="34" viewBox="0 0 102 34" fill="none" xmlns="http://www.w3.org/2000/svg">
<path d="M52.7519 10.8694C52.6938 15.6057 56.8411 18.2487 59.9652 19.8202C63.1751 21.4324 64.2532 22.4664 64.2405 23.9083C64.2166 26.1149 61.6801 27.0888 59.3066 27.1266C55.1657 27.1928 52.7579 25.9726 50.8438 25.0496L49.3521 32.2549C51.2725 33.1684 54.8286 33.965 58.5161 34C67.1722 34 72.8352 29.5894 72.8658 22.751C72.8997 14.0721 61.2363 13.5917 61.3159 9.71246C61.3434 8.53619 62.4308 7.28096 64.8134 6.9618C65.9928 6.80058 69.2484 6.67719 72.9396 8.43173L74.3883 1.46047C72.4033 0.714401 69.8521 0 66.6757 0C58.5285 0 52.7981 4.47065 52.7519 10.8694ZM88.3089 0.600475C86.7283 0.600475 85.3963 1.55219 84.8018 3.01265L72.4371 33.488H81.0868L82.8081 28.5776H93.3778L94.3763 33.488H102L95.3473 0.600475H88.3089ZM89.5189 9.48462L92.0152 21.8342H85.1788L89.5189 9.48462ZM42.2647 0.600883L35.4466 33.4875H43.6891L50.5039 0.600063L42.2647 0.600883ZM30.0713 0.600063L21.4921 22.985L18.0217 3.95202C17.6145 1.82734 16.0064 0.600475 14.2206 0.600475H0.19643L0 1.55547C2.87911 2.20037 6.15028 3.2405 8.13211 4.35344C9.34495 5.03329 9.6908 5.6276 10.0892 7.24312L16.6623 33.488H25.3725L38.7265 0.600475L30.0713 0.600063Z" fill="url(#paint0_linear_410_1918)"/>
<defs>
<linearGradient id="paint0_linear_410_1918" x1="0" y1="34" x2="105.119" y2="0.698257" gradientUnits="userSpaceOnUse">
<stop stop-color="#387ADD"/>
<stop offset="1" stop-color="#97ECFF"/>
</linearGradient>
</defs>
</svg>
