<svg width="77" height="48" viewBox="0 0 77 48" fill="none" xmlns="http://www.w3.org/2000/svg">
<path d="M28.0902 5.1332H48.9098V42.8665H28.0902V5.1332Z" fill="#FF5F00"/>
<path d="M29.4122 24C29.4122 16.3334 32.9812 9.53331 38.4669 5.1332C34.4354 1.93327 29.3463 0 23.7943 0C10.6411 0 0 10.7332 0 24C0 37.2665 10.6411 48 23.7941 48C29.346 48 34.4351 46.0667 38.4669 42.8665C32.9812 38.5332 29.4122 31.6666 29.4122 24Z" fill="#EB001B"/>
<path d="M77 24C77 37.2665 66.3589 48 53.206 48C47.654 48 42.5649 46.0667 38.5331 42.8665C44.085 38.4667 47.5881 31.6666 47.5881 24C47.5881 16.3334 44.0188 9.53331 38.5331 5.1332C42.5646 1.93327 47.654 0 53.206 0C66.3589 0 77 10.8 77 24Z" fill="#F79E1B"/>
</svg>
